PathFileType	4	(X/Y/Z)	D:\Share\Shared_Data\Ergonomics\Sit To Stand Pertubation\S3\Perturbed.trc
DataRate	CameraRate	NumFrames	NumMarkers	Units	OrigDataRate	OrigDataStartFrame	OrigNumFrames	
100	100	16	18	m	100	3887	231
Frame#	Time	R_ASIS			R_Pelvis			V_Sacral			L_Pelvis			L_ASIS			Clavical			R_Acromium			L_Acromium			Sternum			Torso			R_Thigh_Med			R_Thigh_Lat			R_Thigh			R_Shank_Med			R_Shank_Lat			R_Shank			R_Heel			R_Toe			
		X1	Y1	Z1	X2	Y2	Z2	X3	Y3	Z3	X4	Y4	Z4	X5	Y5	Z5	X6	Y6	Z6	X7	Y7	Z7	X8	Y8	Z8	X9	Y9	Z9	X10	Y10	Z10	X11	Y11	Z11	X12	Y12	Z12	X13	Y13	Z13	X14	Y14	Z14	X15	Y15	Z15	X16	Y16	Z16	X17	Y17	Z17	X18	Y18	Z18	

3887	38.86	0.037724602	0.63474805	0.14416385	-0.073330872	0.63415747	0.19931085	-0.18130701	0.64124512	0.012326071	-0.066365837	0.6508006	-0.18824284	0.040446468	0.63769244	-0.13437311	0.093825371	1.0259347	-0.005701087	0.050295914	1.0931008	0.16653972	0.056262814	1.0892894	-0.16456837	0.10538924	0.94694849	0.0017518133	0.096615532	1.0118042	-0.067509315	0.37150208	0.4633187	0.081882309	0.35380365	0.44670279	0.19887186	0.18884415	0.57655963	0.11458745	0.2882012	0.10862232	0.10312623	0.26625378	0.097594597	0.18350407	0.2945239	0.27281931	0.20706145	0.21011742	0.051033138	0.1330611	0.42775314	0.056815533	0.13506688
3888	38.87	0.038979317	0.63387091	0.14397586	-0.072044762	0.63456354	0.19941829	-0.1799341	0.6426571	0.012320173	-0.065067047	0.65121027	-0.18827098	0.04168306	0.63700488	-0.13442406	0.10012266	1.0244077	-0.0055616708	0.057430241	1.0919681	0.16659045	0.062893711	1.0880757	-0.16336765	0.11075436	0.94520032	0.0018101009	0.10268077	1.0102136	-0.067368172	0.37163409	0.46316571	0.082488251	0.35380615	0.44664447	0.19932384	0.1889481	0.57644244	0.11472889	0.28819495	0.10864028	0.10317751	0.26623514	0.097576309	0.18353242	0.29446307	0.27276309	0.20729179	0.21011179	0.051044228	0.13307597	0.42773859	0.056824188	0.13507965
3889	38.88	0.040294003	0.63295276	0.1438546	-0.070701706	0.6349856	0.19953281	-0.17845592	0.64414825	0.012313187	-0.063679672	0.65164502	-0.18836725	0.043001255	0.63627667	-0.13448688	0.10667944	1.0228098	-0.0053749018	0.064881104	1.090736	0.16660797	0.069850868	1.0867853	-0.16200078	0.11631216	0.94333173	0.0018678613	0.10901247	1.0085279	-0.067190842	0.37177448	0.46298538	0.083114075	0.35380542	0.44658102	0.19976875	0.18905859	0.57631567	0.11483917	0.28818362	0.10865455	0.10323163	0.26620914	0.097559975	0.18355774	0.29440372	0.27270261	0.20752756	0.21010329	0.051130077	0.13316093	0.42771066	0.056826305	0.13509267
3890	38.89	0.041649269	0.63197913	0.14378694	-0.069296135	0.6354165	0.199636	-0.1768602	0.64572876	0.012310689	-0.062194118	0.65210663	-0.18857185	0.044408195	0.63550348	-0.13456548	0.11348544	1.0211612	-0.005120892	0.072653145	1.0893987	0.16658162	0.077151688	1.0854247	-0.16057257	0.12207295	0.94134406	0.0019216782	0.11560397	1.0067543	-0.066970818	0.37190802	0.46282855	0.083710793	0.35379779	0.446513	0.20020712	0.18917528	0.57617847	0.11491409	0.28816534	0.10866537	0.10329008	0.26617398	0.097544815	0.18358121	0.29433942	0.27263483	0.2077715	0.21009067	0.051341835	0.13336108	0.42767276	0.056827953	0.13510661
3891	38.9	0.043029034	0.63093646	0.14376218	-0.067821892	0.63585168	0.19971718	-0.17513185	0.64740625	0.012313024	-0.060596893	0.65259705	-0.18892746	0.045915249	0.63468054	-0.1346636	0.12052884	1.0194828	-0.0047817001	0.080750763	1.087951	0.16650157	0.084807121	1.083994	-0.15916455	0.12805783	0.93923822	0.0019693155	0.12244525	1.0049006	-0.066706558	0.37201889	0.46273676	0.084232864	0.35377792	0.44644003	0.20063948	0.18929825	0.57603046	0.11494963	0.28813821	0.10867278	0.103354	0.26612848	0.097528481	0.18360486	0.29426193	0.27255801	0.20802324	0.21007246	0.051736343	0.13372638	0.42762637	0.056833656	0.1351218
3892	38.91	0.044422745	0.62981372	0.14377411	-0.066271622	0.63628809	0.19977284	-0.17325313	0.64918347	0.012314898	-0.058870712	0.65311823	-0.18946858	0.047538597	0.63380359	-0.13478502	0.12779941	1.0177902	-0.0043493381	0.089177597	1.0863909	0.16636102	0.09281881	1.0824904	-0.15782405	0.13429407	0.93701276	0.002008532	0.12952296	1.0029719	-0.066404694	0.37209863	0.46272144	0.084658752	0.35374017	0.44636121	0.20106659	0.18942841	0.57587262	0.11494147	0.28810046	0.10867642	0.10342392	0.26607227	0.097507416	0.18363078	0.29416287	0.27247183	0.20827933	0.21004684	0.052363037	0.13430055	0.4275712	0.056845943	0.13513849
3893	38.92	0.045820969	0.62859888	0.14382066	-0.064634789	0.63672449	0.19980525	-0.17120401	0.65106036	0.012310885	-0.056995342	0.65367316	-0.19020412	0.049296852	0.63286877	-0.13493245	0.13529324	1.016082	-0.0038389738	0.097936165	1.0847197	0.16615723	0.10117706	1.0809231	-0.15657193	0.14080316	0.93466187	0.0020358031	0.13682048	1.0009689	-0.066081352	0.37214865	0.46276144	0.084995277	0.35368103	0.44627493	0.20148991	0.18956793	0.57570844	0.11488479	0.2880506	0.10867564	0.10349958	0.26600629	0.097477707	0.18366017	0.29403625	0.27237723	0.20853484	0.21001114	0.053241745	0.13510222	0.4275072	0.056865795	0.13515703
3894	38.93	0.047221287	0.62727747	0.14390234	-0.062895538	0.63716064	0.19982111	-0.16896356	0.65303613	0.012299788	-0.0549491	0.65426514	-0.19109367	0.05120779	0.6318728	-0.13510677	0.14301515	1.0143324	-0.0032975924	0.10702702	1.0829464	0.1658913	0.1098581	1.079326	-0.15540292	0.14759279	0.93217474	0.0020464041	0.14432036	0.99888855	-0.065759186	0.37217892	0.46281534	0.085270576	0.35360062	0.44617929	0.20191196	0.18972086	0.57554462	0.11477509	0.28798795	0.10866964	0.10357984	0.26593311	0.097435616	0.18369324	0.29388104	0.27227557	0.20878561	0.2099621	0.054327583	0.13609471	0.42743579	0.05689341	0.1351777
3895	38.94	0.048662285	0.62584259	0.14402301	-0.061032963	0.6375976	0.19983078	-0.16651105	0.65510968	0.012284943	-0.052710018	0.65489606	-0.19203609	0.053286221	0.63081366	-0.13530612	0.15097467	1.0124986	-0.0027891407	0.1164481	1.0810842	0.16556642	0.11882737	1.0777306	-0.1543139	0.15465811	0.92953711	0.0020353787	0.15200841	0.99672369	-0.065461708	0.37220493	0.46283749	0.085524879	0.35350467	0.44607172	0.2023364	0.189894	0.57539099	0.11461008	0.28791357	0.10865765	0.1036625	0.26585721	0.097378525	0.18372945	0.29370135	0.2721683	0.2090295	0.20989728	0.055486385	0.13716484	0.42735989	0.056929043	0.13520093
3896	38.95	0.050235226	0.62430231	0.1441908	-0.059022903	0.63803845	0.19984694	-0.16382605	0.65728003	0.012272974	-0.05025547	0.65556573	-0.19290053	0.055542717	0.62969226	-0.13552577	0.15917921	1.0105437	-0.0023641157	0.12619452	1.0791475	0.16518639	0.12804942	1.0761302	-0.15333156	0.16198668	0.92673535	0.0019985472	0.15987801	0.99446484	-0.065208199	0.37224548	0.46279108	0.085802643	0.35340506	0.44594806	0.2027691	0.19009801	0.57526129	0.11439169	0.28783057	0.10863917	0.1037446	0.26578537	0.097305458	0.18376726	0.29350616	0.27205643	0.20926613	0.20981656	0.056533573	0.13815538	0.42728384	0.056973515	0.1352282
3897	38.96	0.052039368	0.62267627	0.14441582	-0.05683905	0.63849005	0.19988283	-0.16088852	0.65954663	0.012272017	-0.047561474	0.65627356	-0.1935876	0.057984451	0.62851251	-0.13575916	0.16763014	1.0084479	-0.0020454297	0.13625748	1.0771461	0.16475479	0.1374984	1.0744862	-0.15249324	0.16956276	0.92376459	0.0019337606	0.16793198	0.99210059	-0.065009102	0.37232028	0.46265836	0.08614344	0.35331995	0.44580295	0.20321884	0.19034702	0.57517175	0.11412698	0.28774423	0.10861417	0.10382287	0.26572375	0.097216461	0.1838042	0.2933082	0.27193906	0.20949583	0.20972321	0.057320549	0.13893742	0.42721307	0.057028366	0.13526248
3898	38.97	0.054142651	0.62098828	0.14470708	-0.054452553	0.6389646	0.19995071	-0.15767796	0.66191107	0.012289583	-0.04460437	0.65702087	-0.19406276	0.06061961	0.62728088	-0.13599983	0.17632288	1.0062029	-0.0018354348	0.14662299	1.0750847	0.16427567	0.14716251	1.0727573	-0.15181827	0.1773703	0.9206413	0.0018435677	0.17617793	0.98961975	-0.064864815	0.372448	0.46244992	0.086570641	0.35327274	0.44563031	0.20369722	0.19065889	0.57513922	0.11383009	0.2876615	0.10858318	0.1038942	0.26567435	0.097112061	0.18383644	0.29312222	0.27181259	0.20971922	0.2096234	0.057776875	0.13944633	0.42715353	0.057095734	0.13530804
3899	38.98	0.056584549	0.61926819	0.14507072	-0.0518321	0.6394801	0.20005998	-0.15417354	0.66437689	0.012330965	-0.041364182	0.65781207	-0.19434383	0.063464134	0.62600568	-0.13624316	0.18524767	1.003809	-0.0017248694	0.15727185	1.0729663	0.16375446	0.15704234	1.0709192	-0.15130598	0.18539517	0.91741174	0.0017379421	0.18461685	0.98701459	-0.064770348	0.37264514	0.46220969	0.087083733	0.35329041	0.44542334	0.20421758	0.1910582	0.5751795	0.11352522	0.28759	0.10854698	0.10395628	0.26563184	0.096993591	0.18385887	0.2929642	0.27167078	0.20993782	0.20952487	0.057888645	0.13966446	0.42711057	0.05717754	0.13536955
3900	38.99	0.05938681	0.6175528	0.14550816	-0.048945114	0.64005969	0.20021658	-0.15035614	0.66694934	0.012399012	-0.03782687	0.65865442	-0.19447571	0.066548317	0.62469775	-0.13648701	0.19438959	1.0012756	-0.0016974468	0.16817938	1.070799	0.16319856	0.16714619	1.0689664	-0.15094366	0.19362595	0.91414026	0.0016327697	0.1932343	0.98428339	-0.064721634	0.37292807	0.46199844	0.087665649	0.3534025	0.44517453	0.20479436	0.19157883	0.57530621	0.11324712	0.28753766	0.10850637	0.10400816	0.26558725	0.096863464	0.18386589	0.29285107	0.27150592	0.21015556	0.20943539	0.057667015	0.13959621	0.4270878	0.057274189	0.13545122
3901	39	0.062550777	0.61588574	0.14601357	-0.045758526	0.64073126	0.20042352	-0.14621162	0.66963416	0.012495047	-0.033985031	0.65955908	-0.19451245	0.069913773	0.62337292	-0.13673077	0.20372884	0.99862201	-0.0017345376	0.1793148	1.0685977	0.16261639	0.17748454	1.0669119	-0.15071109	0.20205173	0.91088593	0.0015453339	0.20200223	0.98143292	-0.064716904	0.37331815	0.46185294	0.088305382	0.35364032	0.44487573	0.20544124	0.19226199	0.57552997	0.11303804	0.2875119	0.10846195	0.1040503	0.26553598	0.096725525	0.18385335	0.2928013	0.27131024	0.21037891	0.20936154	0.057134216	0.13925687	0.42708731	0.0573829	0.13555583
3902	39.01	0.066053833	0.61431433	0.14657178	-0.042239933	0.64152698	0.20068211	-0.14173444	0.67243799	0.012620366	-0.0298384	0.66054297	-0.19450584	0.073586777	0.62204901	-0.13697484	0.21324086	0.99587341	-0.00181995	0.19064018	1.066384	0.16201578	0.18806467	1.0647794	-0.15058176	0.21065826	0.90769177	0.0014921889	0.21088911	0.97848053	-0.06475264	0.37384671	0.46175714	0.08901503	0.35403528	0.44451682	0.20616753	0.19315454	0.57585785	0.11294385	0.28751996	0.10841364	0.10408385	0.26548126	0.096585129	0.18381888	0.29283499	0.27107693	0.21061513	0.20930775	0.056326668	0.13867416	0.42710962	0.057495918	0.13568417
